<svg width="656" height="670" viewBox="0 0 656 670" fill="none" xmlns="http://www.w3.org/2000/svg">
<mask id="mask0_1_19" style="mask-type:alpha" maskUnits="userSpaceOnUse" x="0" y="0" width="656" height="670">
<rect width="656" height="670" fill="#D9D9D9"/>
</mask>
<g mask="url(#mask0_1_19)">
<g opacity="0.16">
<path d="M561.89 496.107C627.944 354.454 566.659 186.075 425.006 120.021C283.353 53.9669 114.974 115.252 48.9199 256.905C-17.1339 398.558 44.1512 566.937 185.804 632.991C327.457 699.045 495.836 637.76 561.89 496.107Z" stroke="#707070"/>
<path d="M509.697 608.035C575.633 466.634 514.255 298.457 372.601 232.403C230.948 166.348 62.6631 227.432 -3.27361 368.834C-69.2104 510.235 -7.83172 678.412 133.822 744.467C275.475 810.521 443.76 749.437 509.697 608.035Z" stroke="#707070"/>
<path d="M255.024 489.28C320.961 347.878 259.582 179.701 117.929 113.647C-23.7248 47.5925 -192.009 108.676 -257.946 250.078C-323.883 391.479 -262.504 559.656 -120.851 625.711C20.803 691.765 189.088 630.681 255.024 489.28Z" stroke="#707070"/>
</g>
<path fill-rule="evenodd" clip-rule="evenodd" d="M401.544 104.983C402.091 103.419 401.267 101.708 399.703 101.161L390.976 98.1087C389.412 97.5618 387.701 98.3862 387.154 99.9502L384.106 108.667C383.559 110.231 384.383 111.942 385.947 112.489L394.674 115.541C396.238 116.088 397.949 115.264 398.496 113.7L401.544 104.983Z" fill="#FF6701"/>
<path fill-rule="evenodd" clip-rule="evenodd" d="M62.4647 247.783C63.6203 246.596 63.5948 244.697 62.4075 243.541L55.783 237.093C54.5958 235.937 52.6964 235.962 51.5407 237.15L45.0924 243.774C43.9367 244.961 43.9623 246.861 45.1495 248.016L51.774 254.465C52.9613 255.621 54.8606 255.595 56.0163 254.408L62.4647 247.783Z" fill="#3794FE"/>
<path fill-rule="evenodd" clip-rule="evenodd" d="M503.059 630.205C504.482 631.054 506.323 630.59 507.173 629.167L511.912 621.229C512.761 619.806 512.296 617.965 510.873 617.115L502.936 612.377C501.513 611.527 499.671 611.992 498.822 613.415L494.083 621.353C493.234 622.775 493.699 624.617 495.121 625.466L503.059 630.205Z" fill="#F6A74A"/>
</g>
</svg>
